<svg xmlns="http://www.w3.org/2000/svg" xmlns:xlink="http://www.w3.org/1999/xlink" width="142.49" height="145.062" viewBox="0 0 142.49 145.062"><defs><linearGradient id="linear-gradient" x1="0.5" y1="0.017" x2="0.5" y2="0.854" gradientUnits="objectBoundingBox"><stop offset="0.341" stop-color="#fa2020"></stop><stop offset="0.481" stop-color="#f41d1d"></stop><stop offset="0.657" stop-color="#e51616"></stop><stop offset="0.852" stop-color="#cb0b0b"></stop><stop offset="1" stop-color="#b30000"></stop></linearGradient><linearGradient id="linear-gradient-2" x1="0.5" x2="0.5" y2="1" gradientUnits="objectBoundingBox"><stop offset="0" stop-color="#2d384a"></stop><stop offset="0.035" stop-color="#2a3445"></stop><stop offset="0.27" stop-color="#1a202b"></stop><stop offset="0.482" stop-color="#10141c"></stop><stop offset="0.651" stop-color="#0d1017"></stop></linearGradient><linearGradient id="linear-gradient-3" x1="0.5" y1="0.571" x2="0.5" y2="4.769" gradientUnits="objectBoundingBox"><stop offset="0" stop-color="#ff4747"></stop><stop offset="1" stop-color="#ff5252"></stop></linearGradient><linearGradient id="linear-gradient-4" x1="0.5" y1="0.028" x2="0.5" y2="1.28" gradientUnits="objectBoundingBox"><stop offset="0" stop-color="#616b7a"></stop><stop offset="0.181" stop-color="#535b6b"></stop><stop offset="0.443" stop-color="#454c5c"></stop><stop offset="0.651" stop-color="#414757"></stop></linearGradient><linearGradient id="linear-gradient-5" x1="0.989" y1="0.5" x2="0.013" y2="0.5" gradientUnits="objectBoundingBox"><stop offset="0.007" stop-color="#333"></stop><stop offset="0.387" stop-color="#fff"></stop><stop offset="0.405" stop-color="#e9e9e9"></stop><stop offset="0.442" stop-color="#b3b3b3"></stop><stop offset="0.495" stop-color="#5d5d5d"></stop><stop offset="0.519" stop-color="#333"></stop><stop offset="0.862" stop-color="#fff"></stop><stop offset="0.894" stop-color="#fcfcfc"></stop><stop offset="0.915" stop-color="#f3f3f3"></stop><stop offset="0.931" stop-color="#e5e5e5"></stop><stop offset="0.946" stop-color="#d0d0d0"></stop><stop offset="0.96" stop-color="#b6b6b6"></stop><stop offset="0.973" stop-color="#959595"></stop><stop offset="0.985" stop-color="#6e6e6e"></stop><stop offset="0.996" stop-color="#424242"></stop><stop offset="1" stop-color="#333"></stop></linearGradient><linearGradient id="linear-gradient-6" x1="0.309" y1="0.927" x2="0.65" y2="0.009" gradientUnits="objectBoundingBox"><stop offset="0.093" stop-color="#fff"></stop><stop offset="0.265" stop-color="#333"></stop><stop offset="0.75" stop-color="#fff"></stop><stop offset="0.809" stop-color="#fcfcfc"></stop><stop offset="0.845" stop-color="#f3f3f3"></stop><stop offset="0.876" stop-color="#e5e5e5"></stop><stop offset="0.903" stop-color="#d0d0d0"></stop><stop offset="0.928" stop-color="#b6b6b6"></stop><stop offset="0.951" stop-color="#959595"></stop><stop offset="0.973" stop-color="#6e6e6e"></stop><stop offset="0.994" stop-color="#424242"></stop><stop offset="1" stop-color="#333"></stop></linearGradient></defs><g id="Group_85" data-name="Group 85" transform="translate(-2128.269 166.612)" style="mix-blend-mode: normal; isolation: isolate;"><path id="Path_96" data-name="Path 96" d="M2170.111-113.115a40.393,40.393,0,0,0-4.462,16.576c-1.069,14.631,5.035,31.843,15.552,43.85a45.2,45.2,0,0,0,12.379,10.146,29.543,29.543,0,0,0,14.118,3.768,29.548,29.548,0,0,0,14.119-3.768,39.468,39.468,0,0,0,4.845-3.106q.789-.59,1.564-1.225a48.371,48.371,0,0,0,3.788-3.465q1.109-1.124,2.182-2.35a61.848,61.848,0,0,0,7.017-9.859q1.145-1.986,2.152-4.051a67.182,67.182,0,0,0,3.9-9.906q.439-1.443.807-2.895a54.255,54.255,0,0,0,1.678-17.138,47.639,47.639,0,0,0-1.625-9.56q-.467-1.641-1.053-3.163-.391-1.015-.836-1.976t-.942-1.867l-.005-.009a86.652,86.652,0,0,0-37.587-8.535A86.642,86.642,0,0,0,2170.111-113.115Z" transform="translate(-8.185 -9.877)" fill="url(#linear-gradient)"></path><path id="Path_97" data-name="Path 97" d="M2265.76-109.262c-3.283-42.5-37.957-48.61-64.361-48.61s-61.077,6.108-64.36,48.61c-2.851,36.906,27.546,82.812,64.36,82.812S2268.611-72.356,2265.76-109.262ZM2242.483-119.3q-1.73-.928-3.5-1.775l.006.009q.5.906.942,1.867t.836,1.976q.586,1.523,1.053,3.163a47.621,47.621,0,0,1,1.625,9.56,54.255,54.255,0,0,1-1.678,17.138q-.368,1.45-.807,2.895a67.156,67.156,0,0,1-3.9,9.906q-1.006,2.062-2.152,4.051a61.832,61.832,0,0,1-7.016,9.859q-1.073,1.226-2.182,2.35a48.459,48.459,0,0,1-3.788,3.465q-.775.636-1.564,1.225a39.437,39.437,0,0,1-4.845,3.106,29.545,29.545,0,0,1-14.119,3.768,29.543,29.543,0,0,1-14.118-3.768A45.191,45.191,0,0,1,2174.9-60.646c-10.517-12.007-16.621-29.219-15.552-43.85a40.4,40.4,0,0,1,4.461-16.576q-1.764.847-3.5,1.774c-6.369,3.416-13.087-4-9.3-10.3l.106-.174a37.51,37.51,0,0,1,13.633-13.138c9.047-5.17,21.033-7.683,36.641-7.683s27.594,2.513,36.641,7.683a37.514,37.514,0,0,1,13.635,13.138l.105.174C2255.57-123.294,2248.851-115.881,2242.483-119.3Z" transform="translate(-1.886 -1.92)" fill="url(#linear-gradient-2)"></path><path id="Path_98" data-name="Path 98" d="M2244.608-118.456q-.521-.709-1.084-1.383a27.41,27.41,0,0,0-3.079-3.13q-.667-.578-1.376-1.118a29.349,29.349,0,0,0-3-2c-6.673-3.9-15.532-5.792-27.084-5.792s-20.412,1.895-27.085,5.792a27.772,27.772,0,0,0-10,9.844q-.259.434-.505.883a86.645,86.645,0,0,1,37.588-8.535,86.65,86.65,0,0,1,37.587,8.535q-.245-.448-.5-.883Q2245.388-117.392,2244.608-118.456Z" transform="translate(-9.475 -7.63)" fill="url(#linear-gradient-3)"></path><path id="Path_99" data-name="Path 99" d="M2255.353-127.717a37.513,37.513,0,0,0-13.635-13.138c-9.047-5.17-21.032-7.683-36.641-7.683s-27.594,2.513-36.641,7.683a37.513,37.513,0,0,0-13.634,13.138l-.105.174c-3.79,6.3,2.928,13.713,9.3,10.3q1.73-.927,3.5-1.774.246-.448.505-.883a27.774,27.774,0,0,1,10-9.844c6.673-3.9,15.533-5.792,27.085-5.792s20.412,1.895,27.085,5.792a29.37,29.37,0,0,1,2.995,2q.709.54,1.376,1.118a27.406,27.406,0,0,1,3.079,3.13q.564.673,1.084,1.383.781,1.065,1.464,2.211.259.434.5.883,1.766.847,3.5,1.775c6.369,3.415,13.087-4,9.3-10.3Z" transform="translate(-5.564 -3.97)" fill="url(#linear-gradient-4)"></path><g id="Group_79" data-name="Group 79" transform="translate(2128.269 -166.612)"><path id="Path_100" data-name="Path 100" d="M2270.554-112.956c-3.623-46.913-41.9-53.656-71.041-53.656s-67.417,6.743-71.04,53.656c-3.146,40.737,30.4,91.406,71.04,91.406S2273.7-72.22,2270.554-112.956ZM2243.037-44.8c-12.79,14.091-28.246,21.851-43.523,21.851s-30.734-7.76-43.523-21.851c-16.774-18.48-26.5-45.053-24.789-67.7,1.55-20.481,9.97-35.168,25.024-43.651,10.813-6.093,24.972-9.055,43.288-9.055s32.475,2.962,43.288,9.055c15.054,8.484,23.473,23.17,25.024,43.651C2269.541-89.857,2259.81-63.284,2243.037-44.8Z" transform="translate(-2128.269 166.612)" fill="url(#linear-gradient-5)"></path></g><g id="Group_80" data-name="Group 80" transform="translate(2131.96 -162.864)"><path id="Path_101" data-name="Path 101" d="M2267.914-111.013c-1.525-19.741-9.779-33.884-24.535-42.036-10.668-5.895-24.676-8.76-42.826-8.76s-32.158,2.865-42.826,8.76c-14.755,8.152-23.009,22.3-24.534,42.036-1.7,21.949,7.937,47.719,24.538,65.653,12.606,13.617,27.814,21.117,42.823,21.117s30.216-7.5,42.823-21.117C2259.977-63.294,2269.609-89.064,2267.914-111.013Zm-67.361,83.7c-36.814,0-67.211-45.906-64.36-82.812,3.283-42.5,37.956-48.61,64.36-48.61s61.078,6.108,64.361,48.61C2267.764-73.221,2237.367-27.315,2200.552-27.315Z" transform="translate(-2133 161.809)" fill="url(#linear-gradient-6)"></path></g><g id="Group_81" data-name="Group 81" transform="translate(2147.038 -125.903)"><path id="Path_102" data-name="Path 102" d="M2159.293-114.148h-6.971v29.289h6.971c5.01,0,6.971-3.722,6.971-8.337v-12.615C2166.264-110.425,2164.3-114.148,2159.293-114.148Zm2.469,19.17c0,3.06-.511,5.618-3.274,5.618h-1.665v-20.286h1.665c2.763,0,3.274,2.558,3.274,5.617v9.052Z" transform="translate(-2152.322 114.378)" fill="#fff"></path><path id="Path_103" data-name="Path 103" d="M2182.318-114.443c-5.307,0-7.446,2.621-7.446,7.236v15.361c0,4.614,2.139,7.236,7.446,7.236s7.446-2.622,7.446-7.236v-15.361C2189.764-111.822,2187.625-114.443,2182.318-114.443Zm2.945,22.257a2.839,2.839,0,0,1-2.945,3.074,2.839,2.839,0,0,1-2.945-3.074v-14.683a2.84,2.84,0,0,1,2.945-3.074,2.839,2.839,0,0,1,2.945,3.074Z" transform="translate(-2157.276 114.443)" fill="#fff"></path><path id="Path_104" data-name="Path 104" d="M2252.491-71.229c-5.307,0-7.446,2.621-7.446,7.236v15.361c0,4.614,2.139,7.236,7.446,7.236s7.446-2.622,7.446-7.236V-63.993C2259.937-68.608,2257.8-71.229,2252.491-71.229Zm2.945,22.257a2.839,2.839,0,0,1-2.945,3.074,2.838,2.838,0,0,1-2.944-3.074V-63.654a2.839,2.839,0,0,1,2.944-3.074,2.839,2.839,0,0,1,2.945,3.074Z" transform="translate(-2172.691 104.95)" fill="#fff"></path><path id="Path_105" data-name="Path 105" d="M2278.126-114.148v22.137a2.84,2.84,0,0,1-2.945,3.074,2.839,2.839,0,0,1-2.945-3.074v-22.137h-4.5v22.476c0,4.615,2.139,7.236,7.446,7.236s7.446-2.621,7.446-7.236v-22.476Z" transform="translate(-2177.676 114.378)" fill="#fff"></path><path id="Path_106" data-name="Path 106" d="M2209.672-48.693a2.839,2.839,0,0,1-2.944,3.074,2.839,2.839,0,0,1-2.945-3.074V-70.829h-4.5v22.475c0,4.615,2.139,7.236,7.446,7.236s7.446-2.621,7.446-7.236V-70.829h-4.5Z" transform="translate(-2162.638 104.862)" fill="#fff"></path><path id="Path_107" data-name="Path 107" d="M2223.541-70.829v4.237h4.537v24.972h4.5V-66.593h4.537v-4.237Z" transform="translate(-2167.968 104.862)" fill="#fff"></path><path id="Path_108" data-name="Path 108" d="M2236.486-84.75v-4.237h-8.453v-9.194h8.453v-4.152h-8.453v-7.578h8.453v-4.237h-13.03v29.4Z" transform="translate(-2167.949 114.378)" fill="#fff"></path><path id="Path_109" data-name="Path 109" d="M2205.658-90.574l-3.748-23.608-5.04.054s4.821,25.563,5.148,26.638a3.631,3.631,0,0,0,3.64,2.937,3.63,3.63,0,0,0,3.639-2.937c.328-1.075,5.149-26.638,5.149-26.638l-5.041-.054Z" transform="translate(-2162.108 114.386)" fill="#fff"></path><path id="Path_110" data-name="Path 110" d="M2259.276-89.013h-9.3l9.3-20.9v-4.237h-14.329v4.237h9.434l-9.434,20.9v4.237h14.329Z" transform="translate(-2172.669 114.378)" fill="#fff"></path><path id="Path_111" data-name="Path 111" d="M2182.261-71.474c-5.307,0-7.446,2.622-7.446,7.236v22.476h4.5v-6.8h5.89v6.8h4.5V-64.238C2189.707-68.852,2187.568-71.474,2182.261-71.474Zm-2.945,18.532V-63.9a2.84,2.84,0,0,1,2.945-3.074,2.84,2.84,0,0,1,2.945,3.074v10.957Z" transform="translate(-2157.263 105.004)" fill="#fff"></path></g><path id="Path_112" data-name="Path 112" d="M2200.284-22.559c-15.277,0-30.734-7.76-43.523-21.851-16.774-18.48-26.5-45.053-24.789-67.7,1.55-20.481,9.97-35.168,25.024-43.651,10.813-6.093,24.972-9.055,43.288-9.055s32.475,2.962,43.288,9.055c15.054,8.484,23.473,23.17,25.024,43.651,1.715,22.645-8.015,49.218-24.789,67.7C2231.018-30.318,2215.561-22.559,2200.284-22.559Zm0-139.91c-18.15,0-32.159,2.865-42.826,8.76-14.755,8.152-23.009,22.3-24.534,42.036-1.7,21.949,7.937,47.719,24.538,65.653C2170.067-32.4,2185.276-24.9,2200.284-24.9s30.216-7.5,42.823-21.117c16.6-17.934,26.233-43.7,24.538-65.653-1.525-19.741-9.779-33.884-24.535-42.036C2232.444-159.6,2218.434-162.469,2200.284-162.469Z" transform="translate(-0.771 -0.395)" fill="#fff"></path></g></svg>